# xmcd
#
# Track frame offsets: 
#        150
#        15285
#        31175
#        42657
#        54651
#        75258
#        97910
#        115160
#        128941
#        146841
#        176501
#        190205
#        202934
#        218172
#        243601
#        260075
#        289487
#
# Disc length: 4440 seconds
#
# Revision: 1
# Processed by: cddbd v1.5.2PL0 Copyright (c) Steve Scherf et al.
# Submitted via: ExactAudioCopy v1.3
#
DISCID=f4115611
DTITLE=Various Artist - Lady Sings the Blues - Disk 1
DYEAR=2003
DGENRE=Blues
TTITLE0=Peggy Lee - Fever
TTITLE1=Dusty Springfield - The Look Of Love
TTITLE2=Elle Fitzgerald - Summertime
TTITLE3=Brenda Lee - I'm Sorry
TTITLE4=Gladys Knight and the Pips - Midnight Train To Georgia
TTITLE5=Luba - When A Man Loves A Woman
TTITLE6=Carole King - A Natural Woman
TTITLE7=Irma Thomas - I've Been Loving You Too Long
TTITLE8=Millie Jackson - I Don't Want To Be Right
TTITLE9=Ruby Turner - I'd Rather Go Blind
TTITLE10=Nina Simone - Gin House Blues
TTITLE11=Julie London - Cry Me A River
TTITLE12=Nancy Wilson - Can't Take My Eyes Off You
TTITLE13=Cassandra Wilson - Tupelo Honey - Angel
TTITLE14=Norah Jones - Cold Cold Heart
TTITLE15=Patricia O'Callaghan - Take This Waltz
TTITLE16=Data
EXTD=YEAR: 2003
EXTT0=
EXTT1=
EXTT2=
EXTT3=
EXTT4=
EXTT5=
EXTT6=
EXTT7=
EXTT8=
EXTT9=
EXTT10=
EXTT11=
EXTT12=
EXTT13=
EXTT14=
EXTT15=
EXTT16=
PLAYORDER=
